<svg xmlns="http://www.w3.org/2000/svg" viewBox="0 0 193 261"><defs><style>.cls-1{fill:#dedede;stroke:#fff;opacity:0.3;}.cls-1,.cls-3,.cls-4,.cls-6{stroke-miterlimit:10;}.cls-2{fill:#d8d8d8;}.cls-3,.cls-4,.cls-6{stroke:#000;}.cls-4,.cls-6{fill:none;}.cls-4{stroke-width:2px;}.cls-5{fill:#ad0c12;}</style></defs><title>drug_1100</title><g id="Layer_2" data-name="Layer 2"><g id="Layer_2-2" data-name="Layer 2"><g id="needles"><rect class="cls-1" x="0.5" y="0.5" width="192" height="260"/><circle class="cls-2" cx="109.49" cy="76.64" r="51.45"/><rect class="cls-3" x="82.4" y="82.63" width="56.64" height="4.27" rx="2.13" ry="2.13" transform="translate(80.41 -51.34) rotate(40.01)"/><rect class="cls-3" x="107.25" y="64.14" width="38.25" height="4.27" rx="1.82" ry="1.82" transform="translate(72.19 -65.73) rotate(40.01)"/><rect class="cls-3" x="103.38" y="72.31" width="28.06" height="4.27" rx="1.59" ry="1.59" transform="translate(-15.1 116.51) rotate(-49.99)"/><rect class="cls-4" x="47.67" y="96.44" width="77.42" height="34.02" rx="5.21" ry="5.21" transform="translate(-56.05 106.68) rotate(-49.99)"/><path class="cls-5" d="M71.43,97.38H115a.18.18,0,0,1,.18.18v19.28a.4.4,0,0,1-.4.4H71.43A3.44,3.44,0,0,1,68,113.8v-13a3.44,3.44,0,0,1,3.44-3.44Z" transform="translate(-49.5 108.46) rotate(-49.99)"/><polygon class="cls-3" points="59.37 141.32 26.8 178.66 26.8 181.5 60.96 142.65 59.37 141.32"/><line class="cls-6" x1="55.25" y1="124.6" x2="63.78" y2="131.71"/><line class="cls-6" x1="59.51" y1="118.91" x2="68.05" y2="126.02"/><line class="cls-6" x1="65.2" y1="113.22" x2="73.74" y2="120.33"/><line class="cls-6" x1="69.47" y1="107.53" x2="78.01" y2="114.64"/><line class="cls-6" x1="73.74" y1="101.84" x2="82.27" y2="108.95"/></g></g></g></svg>