<svg xmlns="http://www.w3.org/2000/svg" viewBox="0 0 193 261"><defs><style>.cls-1{fill:#dedede;opacity:0.3;}.cls-1,.cls-5{stroke:#fff;}.cls-1,.cls-5,.cls-6{stroke-miterlimit:10;}.cls-2{fill:#d8d8d8;}.cls-3,.cls-6{fill:#0d0d0d;}.cls-4{fill:#ad0c12;}.cls-5{fill:#fff;}.cls-6{stroke:#0d0d0d;stroke-width:2px;}</style></defs><title>hand_1100</title><g id="Layer_2" data-name="Layer 2"><g id="Layer_2-2" data-name="Layer 2"><g id="hand"><rect class="cls-1" x="0.5" y="0.5" width="192" height="260"/><circle class="cls-2" cx="100" cy="78" r="50"/><path class="cls-3" d="M55,86l12,8H89s13-4,23-2,12,12,32-4l20,39-15,9-4-5-5,5s2,11-8,10c0,0-2,8-11,6,0,0-2,7-12,5,0,0-3,7-12-1,0,0-10,4-12-3,0,0-4,3-9-4,0,0-8-1-8-8,0,0-9-1-7-8H55l-16-3Z"/><path class="cls-4" d="M56,93l9,4s-6,27-11,33l-10-3Z"/><path class="cls-5" d="M69.5,97.5h20s-13,21-7,23,14-1,17-9c0,0,2-4,8,2s33,26,26,29c0,0-5,0-24-19,0,0-5-1-3,2s19,17,19,17,5,6-2,6c0,0-4,1-22-19,0,0-5-1-3,3s17,16,17,16,2,3,0,4-3,2-22-15c0,0-7-6-9-2,0,0-2-5-9-3,0,0-6-8-12-3l-4-1Z"/><path class="cls-5" d="M129.5,100.5s-2,3-18-4-25,16-25,16-3,7,3,4,8-10,8-10,6-4,12,2,25,27,29,24,4-4,3-7S129.5,100.5,129.5,100.5Z"/><polygon class="cls-4" points="133.5 98.5 142.5 92.5 158.5 125.5 149.5 131.5 133.5 98.5"/><path class="cls-5" d="M66.5,136.5s5,0,4-3-4-1-4-1S64.5,136.5,66.5,136.5Z"/><path class="cls-5" d="M72.5,143.5s-2-2,1-5,7-3,7,0S76.5,144.5,72.5,143.5Z"/><path class="cls-5" d="M80.5,147.5s4-10,8-9,0,7,0,7S83.5,152.5,80.5,147.5Z"/><path class="cls-5" d="M89.5,151.5s1-6,4-6h3v4l-3,3S89.5,153.5,89.5,151.5Z"/><path class="cls-5" d="M99.5,152.5s4,5,7,3-5-6-5-6S97.5,150.5,99.5,152.5Z"/><line class="cls-6" x1="69.5" y1="71.5" x2="78.5" y2="84.5"/><line class="cls-6" x1="93.5" y1="82.5" x2="87.5" y2="61.5"/><line class="cls-6" x1="106.5" y1="80.5" x2="110.5" y2="60.5"/><line class="cls-6" x1="120.5" y1="84.5" x2="129.5" y2="71.5"/></g></g></g></svg>