<svg xmlns="http://www.w3.org/2000/svg" viewBox="0 0 111 111"><defs><style>.cls-1{fill:#fff;}</style></defs><title>insta100</title><g id="Layer_2" data-name="Layer 2"><g id="Layer_5" data-name="Layer 5"><g id="Insta_gram" data-name="Insta gram"><path class="cls-1" d="M96.88,4A10.13,10.13,0,0,1,107,14.12V96.88A10.13,10.13,0,0,1,96.88,107H14.12A10.13,10.13,0,0,1,4,96.88V14.12A10.13,10.13,0,0,1,14.12,4H96.88m0-4H14.12A14.16,14.16,0,0,0,0,14.12V96.88A14.16,14.16,0,0,0,14.12,111H96.88A14.16,14.16,0,0,0,111,96.88V14.12A14.16,14.16,0,0,0,96.88,0Z"/><path class="cls-1" d="M55,45a9,9,0,1,0,9,9,9,9,0,0,0-9-9Z"/><path d="M68.94,33H41.06A7.08,7.08,0,0,0,34,40.06V67.94A7.08,7.08,0,0,0,41.06,75H68.94A7.08,7.08,0,0,0,76,67.94V40.06A7.08,7.08,0,0,0,68.94,33ZM55,68A14,14,0,1,1,69,54,14,14,0,0,1,55,68ZM69,43a3,3,0,1,1,3-3A3,3,0,0,1,69,43Z"/><path class="cls-1" d="M68.94,33H41.06A7.08,7.08,0,0,0,34,40.06V67.94A7.08,7.08,0,0,0,41.06,75H68.94A7.08,7.08,0,0,0,76,67.94V40.06A7.08,7.08,0,0,0,68.94,33ZM69,43a3,3,0,1,1,3-3,3,3,0,0,1-3,3ZM55,68A14,14,0,1,1,69,54,14,14,0,0,1,55,68Z"/><path class="cls-1" d="M89.45,10H20.55A9.58,9.58,0,0,0,11,19.55v68.9A9.58,9.58,0,0,0,20.55,98h68.9A9.58,9.58,0,0,0,99,88.45V19.55A9.58,9.58,0,0,0,89.45,10ZM80,72.21A6.8,6.8,0,0,1,73.21,79H36.79A6.8,6.8,0,0,1,30,72.21V35.79A6.8,6.8,0,0,1,36.79,29H73.21A6.8,6.8,0,0,1,80,35.79Z"/></g></g></g></svg>