<svg xmlns="http://www.w3.org/2000/svg" viewBox="0 0 193 261"><defs><style>.cls-1{fill:#dedede;stroke:#fff;stroke-miterlimit:10;opacity:0.3;}.cls-2{fill:#d8d8d8;}.cls-3{fill:#900000;}.cls-4{fill:#0d0d0d;}</style></defs><title>kiss_1100</title><g id="Layer_2" data-name="Layer 2"><g id="Layer_2-2" data-name="Layer 2"><g id="kiss"><rect class="cls-1" x="0.5" y="0.5" width="192" height="260"/><circle class="cls-2" cx="79" cy="100" r="53"/><path class="cls-3" d="M48,124s40,71,98,7c0,0-28-28-51-2C95,129,98,105,48,124Z"/><path class="cls-3" d="M45,111s21-51,59-31c0,0,12-27,46,35,0,0-21-3-33-11s-17,0-17,0-11-7-23,4S45,111,45,111Z"/><path class="cls-4" d="M44.09,108.56c5.2-10,12.49-19.55,22-25.75,8.77-5.71,25.4-10.12,33.86-1.62a1.5,1.5,0,0,0,2.12-2.12c-8.29-8.33-23.57-5.92-33.13-1.32C56.81,83.59,47.6,95.36,41.5,107c-.89,1.71,1.7,3.23,2.59,1.52Z"/><path class="cls-4" d="M102.19,82.76c5.27-2.15,10.49-4.11,15.9-1.1,3.9,2.17,7.51,5.86,10.86,8.8,7.54,6.63,14,14,17.69,23.48.7,1.78,3.6,1,2.89-.8-4.34-11.09-12-19.4-21-27-3.5-3-7.36-7-11.8-8.48-5.17-1.75-10.54.25-15.33,2.19-1.76.72-1,3.63.8,2.9Z"/><path class="cls-4" d="M46.93,126.78c14.34,13.69,29.45,26.42,50.14,27.46a60.05,60.05,0,0,0,47-19c1.3-1.43-.81-3.55-2.12-2.13a57.13,57.13,0,0,1-44.86,18.13c-19.82-1-34.31-13.49-48-26.59-1.4-1.33-3.52.79-2.12,2.13Z"/><path class="cls-4" d="M56.08,116.3a42.89,42.89,0,0,0,18.79-6.25c5.88-3.72,15.15-12.31,21.55-4.53,1.22,1.49,3.34-.64,2.12-2.12-3.84-4.67-10.24-4.69-15.41-2.26-4,1.91-7.39,5-11.26,7.23a39.46,39.46,0,0,1-15.79,4.93c-1.9.19-1.92,3.19,0,3Z"/><path class="cls-4" d="M99.36,106.12c4.12-6.85,19.16,4.16,24.25,6.34a63.48,63.48,0,0,0,19.22,5c1.92.17,1.91-2.83,0-3-11-1-20.72-5.76-30.3-10.89-5.16-2.76-12-5.2-15.76,1-1,1.65,1.59,3.16,2.59,1.51Z"/><path class="cls-4" d="M53.74,124.66c11.92-2.41,29.53-10.21,38.65,2.22,1.14,1.53,3.74,0,2.59-1.52-10.23-13.93-28.42-6.35-42-3.59-1.89.38-1.09,3.27.8,2.89Z"/><path class="cls-4" d="M95.45,126.67c13.47-9,30.24-6.11,42,4.36,1.44,1.28,3.57-.84,2.12-2.12-12.69-11.34-31-14.58-45.59-4.83-1.6,1.07-.1,3.67,1.51,2.59Z"/></g></g></g></svg>