<?xml version="1.0" encoding="UTF-8"?>
<svg width="115px" height="83px" viewBox="0 0 115 83" version="1.1" xmlns="http://www.w3.org/2000/svg" xmlns:xlink="http://www.w3.org/1999/xlink">
    <!-- Generator: Sketch 53.1 (72631) - https://sketchapp.com -->
    <title>LOGO</title>
    <desc>Created with Sketch.</desc>
    <g id="HOME" stroke="none" stroke-width="1" fill="none" fill-rule="evenodd">
        <g id="Desktop_3" transform="translate(-12.000000, -12.000000)">
            <g id="MENU" transform="translate(0.000000, 14.000000)">
                <g id="LOGO" transform="translate(14.000000, 0.000000)">
                    <polygon id="Path" fill="#231F20" fill-rule="nonzero" points="25.7400574 56.7937346 20 49.4216825 23.9491595 48.7402323 27.198032 53.6342837 30.2345223 47.6532911 34 47 28.897089 56.2418163 29.1266913 62.436818 25.9524395 63"></polygon>
                    <path d="M35.0092799,54.4006023 C34.9573676,53.2629116 35.1236001,52.1257721 35.4993202,51.0484025 C35.8489641,50.0408858 36.3810027,49.1036946 37.069811,48.2819678 C37.7564714,47.4646759 38.5887129,46.7768598 39.525917,46.252089 C40.5168457,45.7087335 41.5951604,45.3360385 42.7141314,45.1501548 C43.7770276,44.9499484 44.8689701,44.9499484 45.9318663,45.1501548 C46.8702866,45.3342721 47.751841,45.7315011 48.5060543,46.3100855 C49.2678735,46.8873862 49.8756791,47.6376829 50.2772845,48.4965549 C50.7331444,49.4848851 50.9763536,50.5550291 50.9916807,51.6399672 C51.0396847,52.762823 50.879644,53.8849058 50.5193526,54.9515693 C50.1863261,55.9684857 49.6615816,56.9148097 48.9724782,57.7412027 C48.279117,58.5524611 47.4407573,59.232511 46.49866,59.7478828 C45.510228,60.2920875 44.4336974,60.6648563 43.3163497,60.849817 C42.2514713,61.050061 41.157589,61.050061 40.0927106,60.849817 C39.1486186,60.6720855 38.2617655,60.2742936 37.5067145,59.6898863 C36.7448953,59.1125857 36.1370897,58.3622889 35.7354843,57.5034169 C35.2802763,56.5287039 35.0331295,55.4727329 35.0092799,54.4006023 L35.0092799,54.4006023 Z M38.3982337,53.8206369 C38.4100064,54.4644155 38.5462509,55.1001282 38.7997126,55.693925 C39.0215519,56.2110234 39.3584566,56.6727605 39.7856974,57.0452443 C40.2114988,57.4089081 40.7195737,57.6673993 41.2676267,57.7991992 C41.8962278,57.9309403 42.5460502,57.9309403 43.1746512,57.7991992 C43.8410279,57.6907421 44.4802432,57.4584755 45.0580594,57.1148401 C45.6068389,56.789117 46.0876798,56.364016 46.4750436,55.862115 C46.8641008,55.3559309 47.159843,54.7866877 47.3488505,54.1802154 C47.5504325,53.5385459 47.6383038,52.8676292 47.6086309,52.1967339 C47.5880413,51.5627625 47.449991,50.9377863 47.201248,50.3524441 C46.985394,49.8287641 46.647721,49.3620015 46.2152632,48.9895255 C45.7843293,48.6279919 45.2725017,48.3716373 44.7215257,48.2413702 C44.0954408,48.0979618 43.445576,48.0861035 42.8145011,48.2065723 C42.1479018,48.3175038 41.508791,48.5517005 40.9310929,48.896731 C40.3865522,49.223632 39.9097972,49.6486628 39.525917,50.1494562 C39.1378895,50.6584001 38.8422746,51.2293604 38.65211,51.8371554 C38.4588923,52.4705545 38.3731205,53.1308741 38.3982337,53.7916386 L38.3982337,53.8206369 Z" id="Shape" fill="#231F20" fill-rule="nonzero"></path>
                    <path d="M64.9940216,49.8891216 C65.0274675,50.7108225 64.9204176,51.5322452 64.6769483,52.3221113 C64.437816,53.073933 64.0546436,53.7784683 63.5462531,54.4011094 C63.0146833,55.0363298 62.358812,55.5703316 61.6139009,55.9744052 C60.7707753,56.4238969 59.8489554,56.728352 58.8918568,56.8734314 C57.9752839,57.0421895 57.0325429,57.0421895 56.11597,56.8734314 C55.3689971,56.7291062 54.6720205,56.4124187 54.0878976,55.9519296 C53.5243709,55.4962084 53.0888168,54.9173182 52.8196045,54.2662554 C52.5142418,53.5332646 52.3501573,52.7550948 52.3350208,51.9681197 L52,43.084617 L55.3083305,42.5227256 L55.6433514,51.2769933 C55.6470905,51.6931479 55.7343653,52.1049065 55.9005995,52.4906787 C56.0480693,52.829568 56.2774634,53.1315858 56.5706411,53.3728481 C56.8412667,53.6248222 57.1712187,53.8134561 57.533826,53.9235017 C57.9253033,54.0163348 58.3336304,54.0278401 58.7303289,53.9572152 C59.1554272,53.8877965 59.5619212,53.7408079 59.9268318,53.5245588 C60.2871644,53.307424 60.6032337,53.031497 60.8601041,52.7098163 C61.1239044,52.3809588 61.3262083,52.0123425 61.4583555,51.619747 C61.5956472,51.2034487 61.6583203,50.7686143 61.6438135,50.3330158 L61.3566528,41.5618914 L64.6649833,41 L64.9940216,49.8891216 Z" id="Path" fill="#231F20" fill-rule="nonzero"></path>
                    <polygon id="Path" fill="#231F20" fill-rule="nonzero" points="70.4011976 43.1542857 66.1137725 43.8742857 66 41.0171429 77.8862275 39 78 41.8571429 73.7125749 42.5771429 74.1497006 54.4285714 70.8323353 55"></polygon>
                    <polygon id="Path" fill="#231F20" fill-rule="nonzero" points="79 38.2211344 82.1613896 37.6471978 82.3557608 43.1512492 88.5070361 42.0779878 88.3126649 36.5739365 91.4740545 36 92 50.7616475 88.8386104 51.3355841 88.6156552 44.9591492 82.4758135 46.0438893 82.6987687 52.4260635 79.5373791 53"></polygon>
                    <path d="M40,30.4115736 L41.4705882,30.1171498 C41.749369,30.0606441 42.0309418,30.0235402 42.3137255,30.0060465 C42.576406,29.985487 42.8402301,30.0174534 43.0931373,30.1004843 C43.3311036,30.1786364 43.5450425,30.3306468 43.7107843,30.5393424 C43.9071386,30.8025621 44.0314961,31.1249604 44.0686275,31.4670551 C44.1484572,31.8981542 44.0744361,32.3475367 43.8627451,32.7169673 C43.620838,33.0931238 43.2762602,33.3684221 42.8823529,33.5002457 L45,36.2000562 L44.1568627,36.3667111 L42.122549,33.7280075 L41.2745098,33.9057728 L41.7352941,36.8611209 L41.0441176,37 L40,30.4115736 Z M41.1421569,33.1891564 L41.7647059,33.0558324 C41.9558824,33.0169463 42.1568627,32.9725049 42.3578431,32.9169533 C42.5492129,32.867278 42.7338575,32.7888095 42.9068627,32.6836363 C43.0604751,32.5861276 43.190206,32.4467469 43.2843137,32.2781092 C43.3776656,32.0746483 43.4020769,31.8395025 43.3529412,31.6170445 C43.3331347,31.4121949 43.2597291,31.2187364 43.1421569,31.061528 C43.0349368,30.9315729 42.8971728,30.8390565 42.745098,30.79488 C42.5863827,30.7406501 42.4202242,30.7199371 42.254902,30.7337732 C42.0904806,30.7416859 41.9267136,30.7621008 41.7647059,30.79488 L40.7843137,30.9893108 L41.1421569,33.1891564 Z" id="Shape" fill="#D6382A" fill-rule="nonzero"></path>
                    <path d="M51,34.6125678 C50.8127022,34.976714 50.5302222,35.2893934 50.179427,35.5208668 C49.8139994,35.740561 49.4044984,35.8860995 48.976755,35.9483016 C48.6213062,36.0172328 48.2548101,36.0172328 47.8993614,35.9483016 C47.5811685,35.8777505 47.2823146,35.7442243 47.0224131,35.5564863 C46.7687639,35.3673181 46.5560687,35.1334844 46.3960214,34.8678414 C46.0421033,34.2777173 45.9200547,33.5878977 46.051506,32.9206384 C46.1192233,32.5977529 46.2626525,32.2934224 46.4711884,32.0301492 C46.6533277,31.7724261 46.8927849,31.5556133 47.1727471,31.3949336 C47.4686013,31.2181797 47.798671,31.0991055 48.1436541,31.0446745 C48.4663459,30.9851085 48.7981333,30.9851085 49.1208251,31.0446745 C49.4217022,31.1014764 49.7046695,31.2233768 49.947662,31.4008702 C50.2053409,31.5836017 50.418896,31.8163568 50.5740537,32.0835786 C50.7533781,32.395927 50.8741828,32.7353858 50.9310969,33.086863 L50.9812083,33.3302634 L47.0161492,33.995162 C47.0664792,34.190349 47.1534734,34.375355 47.2729697,34.5413287 C47.3905787,34.7041945 47.536764,34.8467568 47.70518,34.9628269 C48.0497498,35.195678 48.4785429,35.2876497 48.8953241,35.2181004 C49.2089914,35.1770515 49.5076281,35.0650606 49.7660085,34.8915877 C50.0016041,34.7199745 50.1941385,34.5010063 50.3297609,34.2504355 L51,34.6125678 Z M49.947662,32.8315895 C49.8837033,32.4741213 49.6717286,32.1556767 49.3588539,31.9470369 C49.0172293,31.7558082 48.6096921,31.7003261 48.225085,31.7926854 C47.392653,31.88294 46.7888609,32.5870336 46.8658152,33.3777562 L49.947662,32.8315895 Z" id="Shape" fill="#D6382A" fill-rule="nonzero"></path>
                    <path d="M55.1563866,33.7263312 L55.1563866,33.7263312 C55.0442723,34.0358919 54.8520457,34.3064066 54.6013778,34.5073783 C54.3211078,34.7492391 53.9834284,34.9064053 53.6245622,34.9620177 C52.7337556,35.134949 51.8346351,34.7070097 51.3712264,33.8895351 C51.2074196,33.607159 51.0962901,33.2946181 51.0437712,32.9685989 C50.9854096,32.6411487 50.9854096,32.3051684 51.0437712,31.9777182 C51.1045448,31.6759915 51.2194406,31.3891679 51.3823266,31.1325553 C51.5480767,30.8741279 51.7659923,30.6572129 52.0205867,30.4972259 C52.2901405,30.3200194 52.5898063,30.1992818 52.9030508,30.1416746 C53.2039754,30.0834402 53.5136667,30.0994028 53.8077151,30.1883043 C54.0972832,30.2757962 54.3658947,30.4267773 54.5958277,30.6312862 L54.5958277,30.6312862 L54.0408189,27.1340603 L54.7623303,27 L56,34.3791467 L55.2784885,34.513207 L55.1563866,33.7263312 Z M54.9121827,32.2516676 C54.8737657,32.0224715 54.7987055,31.8017522 54.6901792,31.5988521 C54.5876484,31.4139038 54.4519416,31.25159 54.2905728,31.1208979 C54.1254781,30.9917136 53.9363968,30.9003699 53.735564,30.8527772 C53.5179723,30.8028962 53.2926952,30.8028962 53.0751035,30.8527772 C52.8571574,30.8871319 52.6488807,30.9706479 52.4645938,31.097583 C52.2929988,31.2155167 52.1473099,31.3705064 52.037237,31.5522224 C51.9244124,31.7276125 51.8487096,31.9263705 51.8152335,32.1350934 C51.7462225,32.5935624 51.82432,33.0631162 52.037237,33.4698679 C52.1386329,33.6574476 52.2767161,33.8203414 52.4423934,33.9478222 C52.6074361,34.0783428 52.7963953,34.171612 52.9974023,34.2217715 C53.214994,34.2716525 53.440271,34.2716525 53.6578628,34.2217715 C53.8776816,34.1845292 54.0875807,34.099135 54.2739226,33.971137 C54.6193292,33.7335528 54.8546878,33.3553979 54.9232829,32.9277979 C54.9544147,32.7032731 54.950666,32.4749319 54.9121827,32.2516676 L54.9121827,32.2516676 Z" id="Shape" fill="#D6382A" fill-rule="nonzero"></path>
                    <path d="M60,27.4117296 L61.4691479,27.1173128 C61.7476556,27.0608083 62.0289527,27.0237053 62.3114594,27.0062121 C62.5738883,26.9853029 62.837508,27.0172751 63.0901077,27.1006477 C63.327841,27.1787979 63.5415704,27.3308047 63.7071499,27.5394954 C63.9033118,27.8027088 64.0275476,28.1250995 64.0646425,28.4671861 C64.1443941,28.898275 64.0704455,29.3476468 63.8589618,29.7170687 C63.6172916,30.0932163 63.2730513,30.3685081 62.8795299,30.5003285 L65,33.2000751 L64.1527914,33.3667261 L62.1204701,30.7280849 L61.2340842,30.905846 L61.6944172,33.8611241 L61.0039177,34 L60,27.4117296 Z M61.1410382,30.1892466 L61.7580803,30.0670359 C61.9490695,30.0281506 62.1449559,29.9837104 62.3457395,29.92816 C62.5369218,29.8784859 62.7213856,29.8000193 62.8942214,29.6948486 C63.0498086,29.6006516 63.1800872,29.4605485 63.2713026,29.2893311 C63.3645631,29.085875 63.3889505,28.8507347 63.3398629,28.628282 C63.3200758,28.4234373 63.2467421,28.2299834 63.129285,28.0727786 C63.0272371,27.949435 62.8991367,27.8576608 62.7571009,27.806137 C62.5984318,27.7525178 62.432535,27.7318176 62.2673849,27.7450316 C62.1031223,27.7529107 61.9395137,27.7733253 61.777669,27.806137 L60.798237,28.0005632 L61.1410382,30.1892466 Z" id="Shape" fill="#D6382A" fill-rule="nonzero"></path>
                    <path d="M65.0071257,26.6666844 C64.9843428,26.5195388 65.0166521,26.3689344 65.0974543,26.245633 C65.1777468,26.1180212 65.3074747,26.0327014 65.4531231,26.0117155 C65.5953061,25.9797456 65.7438722,26.0139439 65.8596017,26.1052825 C65.9767404,26.1919045 66.057518,26.3215985 66.0854231,26.4678546 C66.1168224,26.6180237 66.0861137,26.7749515 66.0007401,26.9006019 C65.9165143,27.0257542 65.7854144,27.1085073 65.6394258,27.1286714 C65.495874,27.1592163 65.3465185,27.1269105 65.226763,27.0394117 C65.1070074,26.9519128 65.0275139,26.8170113 65.0071257,26.6666844 L65.0071257,26.6666844 Z M65.4813508,28.4210655 L66.220916,28.2865629 L67,32.8654975 L66.2604348,33 L65.4813508,28.4210655 Z" id="Shape" fill="#D6382A" fill-rule="nonzero"></path>
                    <path d="M68,25.1252918 L68.6633421,25 L69.1736052,28.2684825 L69.1736052,28.2684825 C69.3106423,28.0105935 69.4966035,27.7860892 69.7195868,27.6093385 C69.9457347,27.4319857 70.2080338,27.314375 70.4849815,27.2661479 C70.7782628,27.2061131 71.079558,27.2061131 71.3728393,27.2661479 C71.6396321,27.3257049 71.891713,27.4444874 72.1127209,27.614786 C72.3322161,27.7846237 72.5178217,27.9994393 72.6587024,28.2466926 C72.8093029,28.5105993 72.9114729,28.8026978 72.9597577,29.107393 C73.0134141,29.4134256 73.0134141,29.7274305 72.9597577,30.033463 C72.9023391,30.3140402 72.798675,30.5814921 72.6535998,30.8233463 C72.5050331,31.057371 72.3142095,31.2573866 72.0923104,31.4116732 C71.864118,31.5723593 71.6068183,31.6800073 71.3371209,31.7276265 C71.0071543,31.798924 70.6653165,31.7744693 70.3472104,31.6568093 C70.0977858,31.5381017 69.8815175,31.3522683 69.7195868,31.1175097 L69.7195868,31.1175097 L69.8420499,31.8747082 L69.1787078,32 L68,25.1252918 Z M69.4491473,29.7610895 C69.4853887,29.97331 69.5543603,30.1776409 69.6532526,30.3657588 C69.7459786,30.5413222 69.8709356,30.6951046 70.020642,30.8178988 C70.1735926,30.9365222 70.3470068,31.0216837 70.5309052,31.0684825 C70.9321743,31.1581185 71.3503627,31.080136 71.6994077,30.8505837 C71.8571685,30.7403637 71.9911118,30.5955114 72.0923104,30.4256809 C72.1940481,30.2606445 72.2634746,30.0753487 72.2964156,29.8809339 C72.3598629,29.452452 72.2880617,29.0136104 72.0923104,28.633463 C71.9975316,28.4593506 71.8708434,28.307426 71.7198183,28.1867704 C71.5683134,28.0643766 71.3945045,27.9771657 71.2095551,27.9307393 C70.8076732,27.8398345 70.3884266,27.9199689 70.0410526,28.1540856 C69.7234931,28.3761301 69.5071095,28.729551 69.4440447,29.1291829 C69.4148379,29.3351621 69.4165603,29.544794 69.4491473,29.7501946 L69.4491473,29.7610895 Z" id="Shape" fill="#D6382A" fill-rule="nonzero"></path>
                    <path d="M74,24.124613 L74.6634348,24 L75.1951956,27.250774 L75.1951956,27.250774 C75.3331302,26.9956155 75.5194394,26.7741529 75.7421495,26.6006192 C75.9666025,26.4242273 76.2269358,26.3072538 76.5018077,26.2592879 C76.7926407,26.196824 77.0921783,26.196824 77.3830113,26.2592879 C77.6465788,26.3196666 77.8962329,26.4357098 78.1173475,26.6006192 C78.3342299,26.7706987 78.5182515,26.9841268 78.6592371,27.2291022 C78.8058409,27.4950049 78.9070194,27.7867088 78.958036,28.0905573 C79.013988,28.392834 79.013988,28.7039153 78.958036,29.006192 C78.9051371,29.2874031 78.8038149,29.5556374 78.6592371,29.7972136 C78.5117839,30.0299704 78.3223904,30.2289023 78.1021544,30.3823529 C77.8729548,30.5403623 77.6162968,30.6472444 77.3475605,30.6965944 C77.0212909,30.7655791 76.6836816,30.7393795 76.3701336,30.620743 C76.101687,30.5263475 75.8631669,30.3537309 75.6813769,30.122291 L75.6813769,30.122291 L75.8029222,30.875387 L75.1445517,31 L74,24.124613 Z M75.4433506,28.7352941 C75.4769816,28.9470307 75.5455768,29.1506719 75.6459261,29.3366873 C75.7380556,29.5096968 75.8621156,29.6608516 76.0105621,29.7809598 C76.1609314,29.9026905 76.3334377,29.9894289 76.5170009,30.0356037 C76.9158708,30.126016 77.3319752,30.0463158 77.6767458,29.8134675 C77.9919252,29.592626 78.206687,29.24112 78.2692792,28.8436533 C78.3330652,28.4151149 78.2599107,27.9760857 78.0616393,27.5975232 C77.9680812,27.4256084 77.8442504,27.2747329 77.6970033,27.1532508 C77.5463563,27.0331702 77.373822,26.9482635 77.1905645,26.9040248 C76.7924683,26.8065802 76.3744647,26.8846913 76.0308196,27.120743 C75.8753761,27.2318427 75.7426969,27.3756282 75.6408617,27.5433437 C75.5398865,27.7074859 75.4709804,27.8917778 75.4382862,28.0851393 C75.4059609,28.3006343 75.4076728,28.5204053 75.4433506,28.7352941 Z" id="Shape" fill="#D6382A" fill-rule="nonzero"></path>
                    <path d="M80.050722,27.9281197 C79.9830927,27.5886697 79.9830927,27.2388932 80.050722,26.8994432 C80.1244302,26.5897381 80.2555211,26.2971296 80.4369881,26.0372577 C80.622281,25.7781392 80.8571761,25.5597124 81.127585,25.3950781 C81.7206768,25.0489335 82.4143761,24.9248058 83.0881779,25.0442578 C83.3952546,25.1077815 83.687373,25.2309391 83.9484977,25.4069703 C84.2060021,25.5887961 84.4249263,25.8213315 84.5922745,26.0907726 C84.7743159,26.3839549 84.8957778,26.7116844 84.949278,27.054042 C85.0169073,27.393492 85.0169073,27.7432685 84.949278,28.0827185 C84.8791426,28.3915694 84.7520477,28.6841235 84.574717,28.944904 C84.3867153,29.2106825 84.1478446,29.4351714 83.872415,29.6049219 C83.2793232,29.9510665 82.5856239,30.0751942 81.9118221,29.9557422 C81.2918742,29.8277143 80.7493183,29.4502168 80.4077255,28.9092274 C80.2234494,28.6106813 80.1019052,28.2766566 80.050722,27.9281197 Z M80.8759268,27.779467 C80.9118017,28.0136375 80.989133,28.2392684 81.1041749,28.445431 C81.3179029,28.8305404 81.6810407,29.1067096 82.1049552,29.2065327 C82.334776,29.2537814 82.5715838,29.2537814 82.8014046,29.2065327 C83.0325836,29.1662473 83.2534744,29.0793086 83.4510339,28.9508501 C83.6302055,28.8303086 83.7818739,28.6721596 83.8958251,28.4870538 C84.0147976,28.3081311 84.0946255,28.1053699 84.1299257,27.8924431 C84.1737103,27.6606781 84.1737103,27.4225674 84.1299257,27.1908024 C84.0930026,26.9587767 84.0157138,26.7352832 83.9016776,26.5307846 C83.7952108,26.3409098 83.6518444,26.1750203 83.4802965,26.0432038 C83.1132312,25.770422 82.6510993,25.6648872 82.2044479,25.7518445 C81.9732689,25.7921299 81.7523781,25.8790686 81.5548186,26.0075271 C81.3767525,26.1289481 81.2236847,26.2844637 81.1041749,26.4653774 C80.9888183,26.64561 80.9111302,26.8479959 80.8759268,27.0599881 C80.8298659,27.2975315 80.8298659,27.5419236 80.8759268,27.779467 L80.8759268,27.779467 Z" id="Shape" fill="#D6382A" fill-rule="nonzero"></path>
                    <path d="M85.2363636,25.5972749 C85.2,25.3917412 85.1575758,25.2033353 85.1090909,25.0263479 C85.0606061,24.8493605 85.0242424,24.6895009 85,24.5410599 L85.7515152,24.415456 C85.7515152,24.5410599 85.8,24.6609546 85.830303,24.7808493 C85.8606061,24.9007439 85.8848485,25.0206386 85.9090909,25.1519518 L85.9090909,25.1519518 C85.9488895,25.0274449 86.0059472,24.9084268 86.0787879,24.7979771 C86.1619448,24.6758146 86.2617903,24.5644814 86.3757576,24.4668394 C86.5045952,24.3624762 86.647186,24.2742056 86.8,24.204213 C86.9676033,24.1233384 87.1475265,24.0674828 87.3333333,24.0386441 C87.6073987,23.9871186 87.889571,23.9871186 88.1636364,24.0386441 C88.3958048,24.084463 88.6135923,24.1802054 88.8,24.3183984 C88.9833054,24.4623907 89.1320437,24.6414276 89.2363636,24.8436512 C89.3549105,25.0706689 89.4366282,25.3131575 89.4787879,25.5630193 L90,28.3263061 L89.2060606,28.4576193 L88.7030303,25.7742623 C88.6651043,25.4548835 88.5134236,25.1570332 88.2727273,24.9292903 C88.0304556,24.734277 87.7019366,24.6638448 87.3939394,24.7408844 C87.1634501,24.7710122 86.9435343,24.8511429 86.7515152,24.9749645 C86.584097,25.0842492 86.4486124,25.2315151 86.3575758,25.4031597 C86.2677743,25.5825667 86.2143328,25.7761955 86.2,25.9740868 C86.1818234,26.2127043 86.1960803,26.4525317 86.2424242,26.6877455 L86.6484848,28.8686868 L85.8606061,29 L85.2363636,25.5972749 Z" id="Path" fill="#D6382A" fill-rule="nonzero"></path>
                    <polyline id="Path" stroke="#000000" stroke-width="1.5" points="37 1.91424235 70.7837294 19.9569947 111 0 105.082979 23"></polyline>
                    <polyline id="Path" stroke="#000000" stroke-width="1.5" points="107.289025 48 112 71.3960644 83.7513017 66.0150268 76.3189382 80 44.5998979 66.0150268 0 75.1627907 7.68392037 58.2182469"></polyline>
                </g>
            </g>
        </g>
    </g>
</svg>