<?xml version="1.0" encoding="UTF-8"?>
<svg width="682px" height="849px" viewBox="0 0 682 849" version="1.1" xmlns="http://www.w3.org/2000/svg" xmlns:xlink="http://www.w3.org/1999/xlink">
    <!-- Generator: Sketch 53.1 (72631) - https://sketchapp.com -->
    <title>london_map100</title>
    <desc>Created with Sketch.</desc>
    <g id="Page-1" stroke="none" stroke-width="1" fill="none" fill-rule="evenodd">
        <g id="Desktop-HD" transform="translate(-42.000000, -4594.000000)">
            <g id="WHERE" transform="translate(0.000000, 4523.000000)">
                <g id="london_map100" transform="translate(44.000000, 73.000000)">
                    <polygon id="northlondon" stroke="#FFFFFF" stroke-width="3" opacity="0.635588728" stroke-linecap="round" stroke-linejoin="round" fill-rule="nonzero" points="272 78 310 172 326 166 288 71"></polygon>
                    <path d="M17,173 L60,273 L182,264 L162,215 L179,208 C179,208 175,205 177,197 L162,189 C162,189 159,182 165,180 C165,180 166,162 155,166 C155,166 145,165 153,158 C161,151 174,144 167,137 C160,130 171,129 172,126 C173,123 173,119 169,118 C165,117 169,113 169,113 L17,173 Z" id="white_hills" stroke="#FFFFFF" stroke-width="3" opacity="0.635588728" stroke-linecap="round" stroke-linejoin="round" fill-rule="nonzero"></path>
                    <path d="M191.12,104 L257.12,78 L295.12,172 C295.12,172 296.12,179 298.12,182 C300.12,185 298.12,188 292.12,187 C286.12,186 279.12,187 276.12,182 C276.12,182 266.12,180 263.12,187 L259.12,217 L249.12,220 L247.12,185 C247.12,185 237.12,182 234.12,203 C234.12,203 222.12,197 219.12,204 C216.12,211 219.12,214 219.12,214 C219.12,214 209.12,212 210.12,198 L200.12,200 C200.12,200 196.12,197 198.12,189 L183.12,181 C183.12,181 180.12,174 186.12,172 C186.12,172 187.12,154 176.12,158 C176.12,158 168.12,158 172.12,152 C176.12,146 197.12,137 187.12,128 C187.12,128 182.12,123 191.12,120 C191.12,120 197.12,115 191.12,110 C191.12,110 185.12,109 191.12,104 Z" id="Masonville" stroke="#FFFFFF" stroke-width="3" opacity="0.635588728" stroke-linecap="round" stroke-linejoin="round" fill-rule="nonzero"></path>
                    <path d="M478,0 L324,61 L362,156 C362,156 375,154 373,142 C371,130 395,135 395,135 C395,135 404,130 400,112 C400,112 403,104 426,104 C426,104 428,104 431,100 C434,96 458,101 461,96 C464,91 490,96 492,98 C494,100 540,79 530,62 C530,62 488,39 478,0 Z" id="northeast_london" stroke="#FFFFFF" stroke-width="3" opacity="0.635588728" stroke-linecap="round" stroke-linejoin="round" fill-rule="nonzero"></path>
                    <path d="M566,90 L575,112 L609,98 L620,128 L603,134 L621,185 L618,190 L619,203 L394,290 L369,221 L404,209 L392,174 C392,174 402,168 397,151 C397,151 402.81,142.29 422.05,143 L423,143 C423,143 427,141 428,139 C429,137 441,136.78 449,137.39 C457,138 459.22,133.94 459.22,133.94 C459.22,133.94 468.99,130 488.99,137 C488.99,137 533.99,125 526.99,101 C526.99,101 528.99,105 538.99,101 C548.99,97 566,90 566,90 Z" id="east_london" stroke="#FFFFFF" stroke-width="3" opacity="0.635588728" stroke-linecap="round" stroke-linejoin="round" fill-rule="nonzero"></path>
                    <path d="M413,340 L400,300 L625,213 L639,246 C639,246 652,253 656,259 L631,267 L639,288 C639,288 612,288 617,332 L630,326 L633,335 L644,337 L665,457 L675,457 L678,474 L650,478 L652,494 L635,498 L662,648 L447,720 C447,720 445,691 442,682 C439,673 445,667 460,667 C475,667 471,648 471,648 L449,517 C449,517 441,498 429,487 C429,487 423,472 417,469 C411,466 400,384 400,384 L398,366 L384,348 L384,342 L394,343 C394,343 396,348 401,344 C406,340 413,340 413,340 Z" id="south_east_london" stroke="#FFFFFF" stroke-width="3" opacity="0.635588728" stroke-linecap="round" stroke-linejoin="round" fill-rule="nonzero"></path>
                    <path d="M397,771 L188,845 C188,845 240,793 236,782 C232,771 204,691 204,691 L188,696 L184,684 L201,679 L196,666 L171,674 L168,671 L144,681 L144,676 L132,680 L129,671 L122,672 L90,584 L100,579 L96,570 L69,572 L62,546 L40,553 L11,466 L0,459 C0,459 15,456 0,428 C0,428 18,415 18,412 C18,409 29,408 29,408 L53,374 C53,374 63,369 66,371 C66,371 66,360 85,355 C85,355 95,364 94,373 C94,373 111,380 98,392 C85,404 103,423 103,423 C103,423 113,428 121,428 C129,428 134,433 140,437 C146,441 200,454 204,432 C208,410 220,405 220,405 L220,396 C220,396 221,391 246,390 C246,390 258,383 263,383 L268,383 C268,383 282,379 283,376 C284,373 296,375 296,375 L296,387 L283,388 L285,447 L351,444 C351,444 361,510 364,515 C367,520 374.91,531.95 378,536 C394,557 390,552 390,552 C390,552 400,562 401,581 C402,600 423,702 421,709 C419,716 414,718 410,718 C406,718 389,719 391,729 C393,739 396,752 397,771 Z" id="southwest_london" stroke="#FFFFFF" stroke-width="3" opacity="0.635588728" stroke-linecap="round" stroke-linejoin="round" fill-rule="nonzero"></path>
                    <path d="M100,317 L222,308 L271,304 L283,322 L283,345 C283,345 277,343 261,352 C261,352 238,352 235,358 L235,367 C235,367 223,374 219,392 C215,410 187,408 170,404 C153,400 157,400 157,400 C157,400 150,393 137,390 C137,390 124,390 118,385 C112,380 101,363 114,353 C127,343 109,335 109,335 C109,335 110,325 100,317 Z" id="west" stroke="#FFFFFF" stroke-width="3" opacity="0.635588728" stroke-linecap="round" stroke-linejoin="round" fill-rule="nonzero"></path>
                    <path d="M282,252 L272,255 L272,269 C272,269 282,281 275,287 L287,305 L287,328 C287,328 299,325 302,321 C305,317 315,320 315,320 C315,320 318,296 305,284 C303.76422,281.887175 303.405243,279.374331 304,277 C305,273 301,267 288,266 C275,265 282,252 282,252 Z" id="Path" stroke="#FFFFFF" stroke-width="3" opacity="0.635588728" stroke-linecap="round" stroke-linejoin="round" fill-rule="nonzero"></path>
                    <path d="M314,273 L366,252 L391,325 C391,325 384,324 379,329 C374,334 372,328 372,328 L362,327 L361,332 C361,332 350,341 349,324 L345,325 C345,325 342,332 334,322 L324,321 L324,309 C324,309 328,286 314,273 Z" id="downtown" stroke="#FFFFFF" stroke-width="3" fill="#AD0D12" fill-rule="nonzero" opacity="0.635588728" stroke-linecap="round" stroke-linejoin="round"></path>
                    <path d="M182,246 L199,239 L209,237 C209,237 207,249 219,254 C219,254 212,246 222,240 C222,240 231,239 233,242 C233,242 234,224 246,224 L248,259 L248,273 C248,273 258,286 251,291 L202,295 L182,246 Z" id="near_west" stroke="#FFFFFF" stroke-width="3" opacity="0.635588728" stroke-linecap="round" stroke-linejoin="round" fill-rule="nonzero"></path>
                    <path d="M374,170.709141 C374,170.709141 352,166.709141 352,177.709141 C352,188.709141 341,191.709141 341,191.709141 L351,216.709141 L386,205.709141 L374,170.709141 Z" id="kipp_s_lane" stroke="#FFFFFF" stroke-width="3" opacity="0.635588728" stroke-linecap="round" stroke-linejoin="round" fill-rule="nonzero"></path>
                    <path d="M352.488056,242 L301.488056,263 C300.252276,260.887175 299.893298,258.374331 300.488056,256 C301.488056,252 296.488056,246 286.488056,245 C276.488056,244 275.488056,241 278.488056,231 L282.488056,202 C282.488056,202 285.488056,193 295.488056,196 C295.488056,196 297.488056,201 308.488056,201 C319.488056,201 318.488056,202 318.488056,198 C318.488056,194 314.488056,192 314.488056,186 L330.488056,180 L352.488056,242 Z" id="Path" stroke="#FFFFFF" stroke-width="3" opacity="0.635588728" stroke-linecap="round" stroke-linejoin="round" fill-rule="nonzero"></path>
                    <path d="M307.32,332.67 L309.32,391.67 L375.32,388.67 L372.32,361.67 L357.32,341.67 C357.32,341.67 352.32,348.67 347.32,342.67 C346.12329,340.164547 345.443116,337.443852 345.32,334.67 L341.32,335.67 C341.32,335.67 337.32,342.67 330.32,332.67 L320.32,331.67 L307.32,332.67 Z" id="Path" stroke="#FFFFFF" stroke-width="3" opacity="0.635588728" stroke-linecap="round" stroke-linejoin="round" fill-rule="nonzero"></path>
                    <text id="Southeast-London" font-family="EuphemiaUCAS-Italic, Euphemia UCAS" font-size="15" font-style="italic" font-weight="normal" line-spacing="25" fill="#FFFFFF">
                        <tspan x="504.36377" y="391">Southeast</tspan>
                        <tspan x="513.130859" y="416">London</tspan>
                    </text>
                    <text id="East-London" font-family="EuphemiaUCAS-Italic, Euphemia UCAS" font-size="15" font-style="italic" font-weight="normal" line-spacing="25" fill="#FFFFFF">
                        <tspan x="450.65918" y="178">East London</tspan>
                    </text>
                    <text id="Northeast-London" font-family="EuphemiaUCAS-Italic, Euphemia UCAS" font-size="15" font-style="italic" font-weight="normal" line-spacing="25" fill="#FFFFFF">
                        <tspan x="391.217041" y="60">Northeast </tspan>
                        <tspan x="399.130859" y="85">London</tspan>
                    </text>
                    <text id="North-London" font-family="EuphemiaUCAS-Italic, Euphemia UCAS" font-size="15" font-style="italic" font-weight="normal" line-spacing="25" fill="#FFFFFF">
                        <tspan x="275.693359" y="60">North</tspan>
                        <tspan x="269.130859" y="85">London</tspan>
                    </text>
                    <text id="Masonville" font-family="EuphemiaUCAS-Italic, Euphemia UCAS" font-size="15" font-style="italic" font-weight="normal" line-spacing="25" fill="#FFFFFF">
                        <tspan x="193.466553" y="139">Masonville</tspan>
                    </text>
                    <text id="Whitehills" font-family="EuphemiaUCAS-Italic, Euphemia UCAS" font-size="15" font-style="italic" font-weight="normal" line-spacing="25" fill="#FFFFFF">
                        <tspan x="71.5500488" y="181">Whitehills</tspan>
                    </text>
                    <text id="Near-West" font-family="EuphemiaUCAS-Italic, Euphemia UCAS" font-size="15" font-style="italic" font-weight="normal" line-spacing="25" fill="#FFFFFF">
                        <tspan x="136.591309" y="285">Near West</tspan>
                    </text>
                    <text id="Old-Town" font-family="EuphemiaUCAS-Italic, Euphemia UCAS" font-size="15" font-style="italic" font-weight="normal" line-spacing="25" fill="#FFFFFF">
                        <tspan x="301.797852" y="218">Old</tspan>
                        <tspan x="295.693115" y="243">Town</tspan>
                    </text>
                    <text id="Near-South" font-family="EuphemiaUCAS-Italic, Euphemia UCAS" font-size="15" font-style="italic" font-weight="normal" line-spacing="25" fill="#FFFFFF">
                        <tspan x="237.024414" y="297">Near South</tspan>
                    </text>
                    <text id="West-London" font-family="EuphemiaUCAS-Italic, Euphemia UCAS" font-size="15" font-style="italic" font-weight="normal" line-spacing="25" fill="#FFFFFF">
                        <tspan x="143.765869" y="344">West London</tspan>
                    </text>
                    <text id="SouthWest-London" font-family="EuphemiaUCAS-Italic, Euphemia UCAS" font-size="15" font-style="italic" font-weight="normal" line-spacing="25" fill="#FFFFFF">
                        <tspan x="184.24707" y="549">SouthWest </tspan>
                        <tspan x="195.130859" y="574">London</tspan>
                    </text>
                    <text id="Old-South" font-family="EuphemiaUCAS-Italic, Euphemia UCAS" font-size="15" font-style="italic" font-weight="normal" line-spacing="25" fill="#FFFFFF">
                        <tspan x="330.797852" y="376">Old</tspan>
                        <tspan x="322.840088" y="401">South</tspan>
                    </text>
                    <text id="Downtown" font-family="EuphemiaUCAS-Italic, Euphemia UCAS" font-size="15" font-style="italic" font-weight="normal" line-spacing="25" fill="#FFFFFF">
                        <tspan x="326.561768" y="305">Downtown</tspan>
                    </text>
                </g>
            </g>
        </g>
    </g>
</svg>