<svg id="Layer_1" data-name="Layer 1" xmlns="http://www.w3.org/2000/svg" viewBox="0 0 213.36 203.82"><defs><style>.cls-1,.cls-2{fill:#ff1f03;}.cls-1{opacity:0.8;}.cls-3{fill:#fff;stroke:#fff;stroke-miterlimit:10;}</style></defs><title>newlogo</title><g id="logo4"><polygon class="cls-1" points="4.24 56.24 13.5 55.16 32.42 54.34 33.93 73.92 37.68 94.56 52.99 98.14 74.58 72.08 81.32 54.76 94.11 52.07 98.33 57.92 99.9 83.48 104.33 96.78 116.6 98.14 131.6 89.62 148.35 55.59 141.83 88.59 149.65 97.05 165.69 90.77 173.87 88.25 175.56 100.52 178.98 103.26 198.41 86.55 208.86 76.43 208.86 203.82 4.77 203.82 4.24 56.24"/><polygon class="cls-2" points="4.77 50.95 10.08 37.65 17.3 47.66 23.11 53.14 32.15 53.14 35.38 67.29 35.38 86.39 40.91 96.4 58.75 98.97 77.32 73.19 81.32 54.76 93.16 53.14 98.33 55.73 98.33 67.29 98.33 84.78 106.26 95.75 119.95 96.4 132.87 84.78 149.65 53.14 142.55 86.07 149.65 97.05 164.5 93.82 173.54 70.57 178.06 58.95 175.56 102.23 181.93 104.15 208.86 65.19 208.86 0 4.77 0 4.77 50.95"/><path class="cls-3" d="M997.78,594q.21-.84.63-2.1a21.28,21.28,0,0,1,1-2.37c.35-.74.69-1.37,1-1.89s.58-.79.79-.79.4.28.58.84a13.62,13.62,0,0,1,.42,2c.11.77.17,1.56.21,2.37s0,1.45,0,1.94Zm15.42,7.68h3.21c2,0,3.35.34,4,1a4.42,4.42,0,0,1,.89,3,50.37,50.37,0,0,1-1,10,52.82,52.82,0,0,0-1.05,10.47,25.31,25.31,0,0,0,1.47,8.89,20.06,20.06,0,0,0,3.94,6.63,16.54,16.54,0,0,0,5.85,4.1,18.15,18.15,0,0,0,7.15,1.43,20.36,20.36,0,0,0,11.21-3.27,42.47,42.47,0,0,0,9.21-8,70.54,70.54,0,0,0,7.31-10.16q3.21-5.41,5.63-9.73a4.21,4.21,0,0,0,.42-1.9,4,4,0,0,0-1-2.68,3.7,3.7,0,0,0-3-1.21,4.06,4.06,0,0,0-2,.52,3.8,3.8,0,0,0-1.47,1.48q-1.78,3.46-4.47,8.1a68.85,68.85,0,0,1-6.05,8.79,40.06,40.06,0,0,1-7.37,7.1,14.1,14.1,0,0,1-8.52,2.95,10.61,10.61,0,0,1-3.27-.58,9.05,9.05,0,0,1-3.36-2,11.43,11.43,0,0,1-2.64-4,16.13,16.13,0,0,1-1-6.26,47.12,47.12,0,0,1,.32-5.37q.32-2.73.73-5.52c.29-1.86.53-3.67.74-5.42a42.54,42.54,0,0,0,.32-5c0-4-1.06-6.88-3.16-8.63s-5.16-2.63-9.15-2.63c-1.06,0-2.16,0-3.32.05s-2.33,0-3.53,0a39.94,39.94,0,0,0-.36-4.94,30.14,30.14,0,0,0-1.21-5.42,13,13,0,0,0-2.37-4.37,5,5,0,0,0-3.95-1.79,6,6,0,0,0-4.21,2.16,25.62,25.62,0,0,0-3.79,5.1,33.14,33.14,0,0,0-2.68,6,16.89,16.89,0,0,0-1,4.84,6.08,6.08,0,0,0,1.05,3.79,6.16,6.16,0,0,0,2.69,2,11.14,11.14,0,0,0,3.52.73c1.27.08,2.49.11,3.69.11-.64,3.09-1.16,5.37-1.58,6.84a24.85,24.85,0,0,1-1.06,3.16,10,10,0,0,1-.63,1.26,1.74,1.74,0,0,0-.21,1,3.54,3.54,0,0,0,1.27,2.79,4.09,4.09,0,0,0,2.73,1.1,3.72,3.72,0,0,0,3.69-2.42,8.17,8.17,0,0,0,.52-1.26c.28-.77.61-1.77,1-3s.79-2.67,1.21-4.32a52.54,52.54,0,0,0,1.05-5.31C1010.8,601.71,1012,601.67,1013.2,601.67Z" transform="translate(-990.02 -544.91)"/><path class="cls-3" d="M1063.13,594q.21-.84.63-2.1a21.28,21.28,0,0,1,1-2.37c.35-.74.69-1.37,1-1.89s.58-.79.79-.79.4.28.58.84a13.62,13.62,0,0,1,.42,2c.11.77.17,1.56.21,2.37s0,1.45,0,1.94Zm15.42,7.68h3.21c2,0,3.35.34,4,1a4.42,4.42,0,0,1,.89,3,50.37,50.37,0,0,1-1,10,52.82,52.82,0,0,0-1,10.47A25.31,25.31,0,0,0,1086,635a20.06,20.06,0,0,0,3.94,6.63,16.54,16.54,0,0,0,5.85,4.1,18.15,18.15,0,0,0,7.15,1.43,20.36,20.36,0,0,0,11.21-3.27,42.47,42.47,0,0,0,9.21-8,70.54,70.54,0,0,0,7.31-10.16q3.21-5.41,5.63-9.73a4.21,4.21,0,0,0,.42-1.9,4,4,0,0,0-1-2.68,3.68,3.68,0,0,0-3-1.21,4.06,4.06,0,0,0-2,.52,3.8,3.8,0,0,0-1.47,1.48q-1.79,3.46-4.47,8.1a68.85,68.85,0,0,1-6,8.79,40.06,40.06,0,0,1-7.37,7.1,14.1,14.1,0,0,1-8.52,2.95,10.61,10.61,0,0,1-3.27-.58,9.05,9.05,0,0,1-3.36-2,11.28,11.28,0,0,1-2.63-4,15.94,15.94,0,0,1-1.06-6.26,47.12,47.12,0,0,1,.32-5.37c.21-1.82.45-3.66.74-5.52s.52-3.67.73-5.42a42.54,42.54,0,0,0,.32-5q0-6-3.16-8.63c-2.1-1.76-5.16-2.63-9.15-2.63-1.06,0-2.16,0-3.32.05s-2.33,0-3.53,0a39.94,39.94,0,0,0-.36-4.94,30.14,30.14,0,0,0-1.21-5.42,13,13,0,0,0-2.37-4.37,5,5,0,0,0-4-1.79,6,6,0,0,0-4.21,2.16,25.62,25.62,0,0,0-3.79,5.1,33.14,33.14,0,0,0-2.68,6,16.89,16.89,0,0,0-1,4.84,6.08,6.08,0,0,0,1.05,3.79,6.16,6.16,0,0,0,2.69,2,11.14,11.14,0,0,0,3.52.73c1.27.08,2.49.11,3.69.11-.64,3.09-1.16,5.37-1.58,6.84a27,27,0,0,1-1,3.16,11.15,11.15,0,0,1-.64,1.26,1.74,1.74,0,0,0-.21,1,3.54,3.54,0,0,0,1.27,2.79,4.09,4.09,0,0,0,2.73,1.1,3.72,3.72,0,0,0,3.69-2.42,8.17,8.17,0,0,0,.52-1.26c.28-.77.61-1.77,1-3s.79-2.67,1.21-4.32a52.54,52.54,0,0,0,1-5.31C1076.15,601.71,1077.39,601.67,1078.55,601.67Z" transform="translate(-990.02 -544.91)"/><path class="cls-3" d="M1160.11,678.71q.15,4.62.15,9.15a194.22,194.22,0,0,1-.94,20.15,89.29,89.29,0,0,1-2.79,15.32,29.06,29.06,0,0,1-4.53,9.73q-2.68,3.42-6.15,3.42a6.11,6.11,0,0,1-5.69-3.1q-1.79-3.11-1.79-8.58a55.11,55.11,0,0,1,1.58-12.21,111.76,111.76,0,0,1,4.42-14.31,142.82,142.82,0,0,1,6.79-15,135.36,135.36,0,0,1,8.68-14.42Q1159.95,674.08,1160.11,678.71Zm9.2-48.25q.64-7.53,1.21-13.21t1-9.1c.28-2.28.42-3.53.42-3.74a3.94,3.94,0,0,0-4-4,3.75,3.75,0,0,0-2.53.9,3.58,3.58,0,0,0-1.26,2.26q-3.37,16.95-8.21,25.83t-10.84,8.9q-4.74,0-6.84-3.27c-1.4-2.17-2.11-5.19-2.11-9a47.65,47.65,0,0,1,1.11-10.63,64.42,64.42,0,0,1,2.42-8.31,34.39,34.39,0,0,1,2.42-5.31,16.59,16.59,0,0,0,1-1.74,3.7,3.7,0,0,0,.63-2.1,4,4,0,0,0-1.1-2.79,3.73,3.73,0,0,0-2.9-1.21,3.66,3.66,0,0,0-3.26,1.79,18.3,18.3,0,0,0-1.26,2.05,43.14,43.14,0,0,0-2.79,6.21,76.86,76.86,0,0,0-2.84,9.68,54.66,54.66,0,0,0-1.32,12.47q0,9.36,4.53,14.73t12.52,5.37a14.74,14.74,0,0,0,8.89-3,24.09,24.09,0,0,0,6.79-7.78q-.32,4.62-.58,10T1160,656a107.13,107.13,0,0,0-7.47,9.84,132.12,132.12,0,0,0-7,11.41q-3.26,6-6,12.32a128.67,128.67,0,0,0-4.79,12.47,97.51,97.51,0,0,0-3.1,11.94,57.72,57.72,0,0,0-1.11,10.84q0,9.26,4,14.42t11.47,5.15a13.77,13.77,0,0,0,7.89-2.26,21,21,0,0,0,5.9-6.21,37.15,37.15,0,0,0,4.15-9.31,82.46,82.46,0,0,0,2.58-11.53q.94-6.15,1.37-12.89t.42-13.47q0-8.21-.42-15.52a126.46,126.46,0,0,1,0-14.57q4.32-4.85,9.05-9.63t9.37-9.89q4.62-5.12,8.84-10.79a76.58,76.58,0,0,0,7.47-12.52,4,4,0,0,0,.31-1.58,4.18,4.18,0,0,0-1.1-2.84,3.65,3.65,0,0,0-2.9-1.27,4,4,0,0,0-2.1.58,3.85,3.85,0,0,0-1.47,1.74,71.61,71.61,0,0,1-5.53,9.73,103.71,103.71,0,0,1-6.68,8.79q-3.58,4.22-7.37,8.05t-7.47,7.52Q1168.68,638,1169.31,630.46Z" transform="translate(-990.02 -544.91)"/></g></svg>