<svg xmlns="http://www.w3.org/2000/svg" viewBox="0 0 193 261"><defs><style>.cls-1{fill:#dedede;stroke:#fff;opacity:0.3;}.cls-1,.cls-3,.cls-4{stroke-miterlimit:10;}.cls-2{fill:#d8d8d8;}.cls-3,.cls-4{fill:none;}.cls-3{stroke:#0d0d0d;stroke-width:2px;}.cls-4{stroke:#ad0c12;stroke-width:5px;}</style></defs><title>pool_1100</title><g id="Layer_2" data-name="Layer 2"><g id="Layer_2-2" data-name="Layer 2"><g id="pool"><rect class="cls-1" x="0.5" y="0.5" width="192" height="260"/><circle class="cls-2" cx="79.89" cy="97.89" r="60.89"/><line class="cls-3" x1="96.94" y1="93.02" x2="155.39" y2="93.02"/><line class="cls-3" x1="131.64" y1="108.24" x2="154.78" y2="108.24"/><line class="cls-3" x1="79.28" y1="108.24" x2="53.71" y2="108.24"/><line class="cls-3" x1="79.28" y1="93.63" x2="53.71" y2="93.63"/><line class="cls-4" x1="89.02" y1="104.59" x2="121.9" y2="104.59"/><line class="cls-4" x1="89.02" y1="114.33" x2="121.9" y2="114.33"/><line class="cls-4" x1="89.02" y1="126.51" x2="121.9" y2="126.51"/><path class="cls-3" d="M54.92,122.85s6.09,6.09,14.62,1.22,12.18,0,12.18,0"/><path class="cls-3" d="M128,122.85s6.09,6.09,14.61,1.22,12.18,0,12.18,0"/><path class="cls-3" d="M54.92,138.68s6.09,6.09,14.62,1.22,12.18,0,12.18,0"/><path class="cls-3" d="M81.72,139.9s6.08,6.09,14.61,1.22,12.18,0,12.18,0"/><path class="cls-3" d="M54.92,152.08s6.09,6.09,14.62,1.22,12.18,0,12.18,0"/><path class="cls-3" d="M81.72,153.3s6.08,6.09,14.61,1.22,12.18,0,12.18,0"/><path class="cls-3" d="M156,142.34s-11,8.52-20.7,0c0,0-3.66-4.87-12.18,0s-14.61-1.22-14.61-1.22"/><path class="cls-3" d="M154.78,154.52s-11,8.52-20.7,0c0,0-3.65-4.88-12.18,0s-14.61-1.22-14.61-1.22"/><path class="cls-4" d="M70.76,92.41S80.5,68.05,89,91.19V135"/><path class="cls-4" d="M103.64,93s9.74-24.36,18.26-1.22v43.84"/></g></g></g></svg>