<svg xmlns="http://www.w3.org/2000/svg" viewBox="0 0 193 261"><defs><style>.cls-1{fill:#dedede;stroke:#fff;opacity:0.3;}.cls-1,.cls-3,.cls-4,.cls-5,.cls-6{stroke-miterlimit:10;}.cls-2,.cls-5{fill:#d8d8d8;}.cls-3{fill:#fff;stroke:#000;stroke-width:3px;}.cls-4{fill:#ad0c12;stroke:#0d0d0d;}.cls-4,.cls-5,.cls-6{stroke-width:2px;}.cls-5{stroke:#0c0c0c;}.cls-6{fill:none;stroke:#141414;}</style></defs><title>pregnant_1100</title><g id="Layer_2" data-name="Layer 2"><g id="Layer_2-2" data-name="Layer 2"><g id="pregnant"><rect class="cls-1" x="0.5" y="0.5" width="192" height="260"/><circle class="cls-2" cx="86.5" cy="93.5" r="54"/><path class="cls-3" d="M115.92,78.24s5.45,4.36,10.9,0,26.7-24.26,1.9-37.75c0,0-9-2.05-12.8.68,0,0-8.18-6-11.45,2.72s1.09,10.91,2.18,10.91-1.09,13.08-10.9,17.44-12,7.63-13.08,21.81-6.55,36-3.28,39.25,15.27,12,15.27,12-13.09,18.54,0,32.71H135V157.28s31.62-17.44-3.27-43.61c0,0,5.45-10.9-6.54-20.71S111,79.87,115.92,78.24Z"/><path class="cls-4" d="M129.55,134.39s-2.18-7.63-8.72-4.36-4.37,13.08,7.63,21.8c0,0,14.17-8.72,12-16.35S131.73,130,129.55,134.39Z"/><path class="cls-5" d="M97.93,109.31l-6.54,14.17,10.9,10.91S108.83,122.39,97.93,109.31Z"/><path class="cls-6" d="M140.5,56.5c-2-12-18,13-34-2"/></g></g></g></svg>