<svg xmlns="http://www.w3.org/2000/svg" viewBox="0 0 193 261"><defs><style>.cls-1{fill:#dedede;stroke:#fff;opacity:0.3;}.cls-1,.cls-4{stroke-miterlimit:10;}.cls-2{fill:#d8d8d8;}.cls-3{fill:#0d0d0d;}.cls-4{fill:#fffcff;stroke:#000;}.cls-5{font-size:27px;fill:#ad0c12;font-family:EuphemiaUCAS-Bold, Euphemia UCAS;font-weight:700;}</style></defs><title>sex_1100</title><g id="Layer_2" data-name="Layer 2"><g id="Layer_2-2" data-name="Layer 2"><g id="sex"><rect class="cls-1" x="0.5" y="0.5" width="192" height="260"/><circle class="cls-2" cx="76.5" cy="107.5" r="49"/><rect class="cls-3" x="66" y="100" width="102" height="67" rx="2.03" ry="2.03"/><rect class="cls-3" x="54.26" y="59.36" width="102.18" height="16.36" rx="2.28" ry="2.28" transform="translate(-19.76 64.84) rotate(-31.43)"/><rect class="cls-4" x="73" y="122" width="88" height="40" rx="2.03" ry="2.03"/><polygon class="cls-4" points="101.5 115.5 119.5 115.5 130.5 102.5 113.5 102.5 101.5 115.5"/><polygon class="cls-4" points="72.5 115.5 90.5 115.5 101.5 102.5 84.5 102.5 72.5 115.5"/><polygon class="cls-4" points="132.5 115.5 150.5 115.5 161.5 102.5 144.5 102.5 132.5 115.5"/><polygon class="cls-4" points="72 82 87 73 87 85 71 95 72 82"/><polygon class="cls-4" points="100 65 115 56 115 68 99 78 100 65"/><polygon class="cls-4" points="126 49 141 40 141 52 125 62 126 49"/><text class="cls-5" transform="translate(94.15 150.54)">18+</text></g></g></g></svg>