<svg xmlns="http://www.w3.org/2000/svg" viewBox="0 0 111 111"><defs><style>.cls-1{fill:#fff;}</style></defs><title>snapchat100</title><g id="Layer_2" data-name="Layer 2"><g id="Layer_5" data-name="Layer 5"><g id="snapchat"><path class="cls-1" d="M96.88,4A10.13,10.13,0,0,1,107,14.12V96.88A10.13,10.13,0,0,1,96.88,107H14.12A10.13,10.13,0,0,1,4,96.88V14.12A10.13,10.13,0,0,1,14.12,4H96.88m0-4H14.12A14.16,14.16,0,0,0,0,14.12V96.88A14.16,14.16,0,0,0,14.12,111H96.88A14.16,14.16,0,0,0,111,96.88V14.12A14.16,14.16,0,0,0,96.88,0Z"/><path class="cls-1" d="M89.25,10H20.75A9.78,9.78,0,0,0,11,19.75v68.5A9.78,9.78,0,0,0,20.75,98h68.5A9.78,9.78,0,0,0,99,88.25V19.75A9.78,9.78,0,0,0,89.25,10ZM74.5,69.5s-2,2-1,4a12.59,12.59,0,0,0-12,1c-6,4-10,1-14-2s-10,1-10,1a4.83,4.83,0,0,0,0-4c-1-2-7,0-7-3v-1s13-2,11.5-11.5c0,0-8.5-2.5-6.5-4.5s7,0,7,0-3-19,13-21c0,0,14-2,14,21,0,0,4-3,5-1s-5,5-5,5-1,11,12,12C81.5,65.5,81.5,68.5,74.5,69.5Z"/></g></g></g></svg>