<svg xmlns="http://www.w3.org/2000/svg" viewBox="0 0 193 261"><defs><style>.cls-1{fill:#dedede;stroke:#fff;opacity:0.3;}.cls-1,.cls-3,.cls-6,.cls-7,.cls-8{stroke-miterlimit:10;}.cls-2{fill:#d8d8d8;}.cls-3,.cls-7{fill:none;}.cls-3,.cls-8{stroke:#000;}.cls-3,.cls-6,.cls-8{stroke-width:2px;}.cls-4{fill:#0d0d0d;}.cls-5{fill:#fff;}.cls-6{fill:#ad0c12;stroke:#0d0d0d;}.cls-7{stroke:#420208;}.cls-8{fill:#fffcff;}</style></defs><title>tattoo_1100</title><g id="Layer_2" data-name="Layer 2"><g id="Layer_2-2" data-name="Layer 2"><g id="tattoo"><rect class="cls-1" x="0.5" y="0.5" width="192" height="260"/><circle class="cls-2" cx="107.5" cy="125.5" r="41"/><path class="cls-3" d="M65,100s-17,13-13,23l10,10s9,3,22-13Z"/><path class="cls-4" d="M54,93l44,44s8,8,15,3,39-37,39-37,9-8,0-17-42-43-42-43-5-7-11-3,1,11,1,11l39,39s4,3,1,6l-30,30s-2,3-5,0S65,85,65,85s-6-5-10-1S54,93,54,93Z"/><path class="cls-5" d="M58,91l43,43s5,7,13,0,35-34,35-34,7-6,2-11L108,46s-3-4-7-3,3,8,3,8l38,37s5,5,1,9l-31,31s-4,5-8,1S64,90,64,90s-3-4-6-5S56,89,58,91Z"/><rect class="cls-6" x="99.35" y="77.9" width="20.51" height="36" rx="5.89" ry="5.89" transform="translate(99.91 -49.41) rotate(45)"/><line class="cls-7" x1="95" y1="96" x2="103" y2="104"/><line class="cls-7" x1="98" y1="93" x2="106" y2="101"/><line class="cls-7" x1="102" y1="89" x2="110" y2="97"/><line class="cls-7" x1="106" y1="85" x2="114" y2="93"/><line class="cls-7" x1="111" y1="81" x2="119" y2="89"/><rect class="cls-6" x="80.35" y="57.9" width="20.51" height="36" rx="5.89" ry="5.89" transform="translate(80.2 -41.84) rotate(45)"/><line class="cls-7" x1="76" y1="76" x2="84" y2="84"/><line class="cls-7" x1="79" y1="73" x2="87" y2="81"/><line class="cls-7" x1="83" y1="69" x2="91" y2="77"/><line class="cls-7" x1="87" y1="65" x2="95" y2="73"/><line class="cls-7" x1="92" y1="61" x2="100" y2="69"/><polygon class="cls-6" points="25 159 54.38 125.38 58.41 129.41 25 159"/><path class="cls-4" d="M122,57h32s4,1,4,5-1,6-6,6H133Z"/><polygon class="cls-8" points="107 56 101.31 61.15 106 66 112 61 107 56"/><polygon class="cls-8" points="125 75 119.31 80.15 124 85 130 80 125 75"/></g></g></g></svg>